HIERARCHY
ROOT hip
{
  OFFSET 0 0 0
  CHANNELS 6 Xposition Yposition Zposition Zrotation Yrotation Xrotation
  JOINT abdomen
  {
    OFFSET 0 20.6881 -0.73152
    CHANNELS 3 Zrotation Xrotation Yrotation
    JOINT chest
    {
      OFFSET 0 11.7043 -0.48768
      CHANNELS 3 Zrotation Xrotation Yrotation
      JOINT neck
      {
        OFFSET 0 22.1894 -2.19456
        CHANNELS 3 Zrotation Xrotation Yrotation
        JOINT head
        {
          OFFSET -0.24384 7.07133 1.2192
          CHANNELS 3 Zrotation Xrotation Yrotation
          JOINT leftEye
          {
            OFFSET 4.14528 8.04674 8.04672
            CHANNELS 3 Zrotation Xrotation Yrotation
            End Site
            {
              OFFSET 1 0 0
            }
          }
          JOINT rightEye
          {
            OFFSET -3.6576 8.04674 8.04672
            CHANNELS 3 Zrotation Xrotation Yrotation
            End Site
            {
              OFFSET 1 0 0
            }
          }
        }
      }
      JOINT rCollar
      {
        OFFSET -2.68224 19.2634 -4.8768
        CHANNELS 3 Zrotation Xrotation Yrotation
        JOINT rShldr
        {
          OFFSET -8.77824 -1.95073 1.46304
          CHANNELS 3 Zrotation Xrotation Yrotation
          JOINT rForeArm
          {
            OFFSET -28.1742 -1.7115 0.48768
            CHANNELS 3 Zrotation Xrotation Yrotation
            JOINT rHand
            {
              OFFSET -22.5879 0.773209 7.07136
              CHANNELS 3 Zrotation Xrotation Yrotation
              JOINT rThumb1
              {
                OFFSET -1.2192 -0.487915 3.41376
                CHANNELS 3 Zrotation Xrotation Yrotation
                JOINT rThumb2
                {
                  OFFSET -3.37035 -0.52449 3.41376
                  CHANNELS 3 Zrotation Xrotation Yrotation
                  End Site
                  {
                    OFFSET -1.78271 -1.18214 1.43049
                  }
                }
              }
              JOINT rIndex1
              {
                OFFSET -7.75947 0.938293 5.60832
                CHANNELS 3 Zrotation Xrotation Yrotation
                JOINT rIndex2
                {
                  OFFSET -2.54057 -0.884171 1.56538
                  CHANNELS 3 Zrotation Xrotation Yrotation
                  End Site
                  {
                    OFFSET -1.62519 -0.234802 1.16502
                  }
                }
              }
              JOINT rMid1
              {
                OFFSET -8.24714 1.18213 3.41376
                CHANNELS 3 Zrotation Xrotation Yrotation
                JOINT rMid2
                {
                  OFFSET -3.10165 -0.590103 1.0647
                  CHANNELS 3 Zrotation Xrotation Yrotation
                  End Site
                  {
                    OFFSET -2.48547 -0.328903 0.83742
                  }
                }
              }
              JOINT rRing1
              {
                OFFSET -8.82822 0.546677 1.51678
                CHANNELS 3 Zrotation Xrotation Yrotation
                JOINT rRing2
                {
                  OFFSET -2.60934 -0.819778 -0.0198488
                  CHANNELS 3 Zrotation Xrotation Yrotation
                  End Site
                  {
                    OFFSET -2.33842 -0.294052 0.168128
                  }
                }
              }
              JOINT rPinky1
              {
                OFFSET -8.27202 -0.0477905 -0.4584
                CHANNELS 3 Zrotation Xrotation Yrotation
                JOINT rPinky2
                {
                  OFFSET -1.82734 -0.647385 -0.700984
                  CHANNELS 3 Zrotation Xrotation Yrotation
                  End Site
                  {
                    OFFSET -1.69225 -0.51767 -0.607171
                  }
                }
              }
            }
          }
        }
      }
      JOINT lCollar
      {
        OFFSET 2.68224 19.2634 -4.8768
        CHANNELS 3 Zrotation Xrotation Yrotation
        JOINT lShldr
        {
          OFFSET 8.77824 -1.95073 1.46304
          CHANNELS 3 Zrotation Xrotation Yrotation
          JOINT lForeArm
          {
            OFFSET 28.1742 -1.7115 0.48768
            CHANNELS 3 Zrotation Xrotation Yrotation
            JOINT lHand
            {
              OFFSET 22.5879 0.773209 7.07136
              CHANNELS 3 Zrotation Xrotation Yrotation
              JOINT lThumb1
              {
                OFFSET 1.2192 -0.487915 3.41376
                CHANNELS 3 Zrotation Xrotation Yrotation
                JOINT lThumb2
                {
                  OFFSET 3.37035 -0.52449 3.41376
                  CHANNELS 3 Zrotation Xrotation Yrotation
                  End Site
                  {
                    OFFSET 1.78271 -1.18214 1.43049
                  }
                }
              }
              JOINT lIndex1
              {
                OFFSET 7.75947 0.938293 5.60832
                CHANNELS 3 Zrotation Xrotation Yrotation
                JOINT lIndex2
                {
                  OFFSET 2.54057 -0.884171 1.56538
                  CHANNELS 3 Zrotation Xrotation Yrotation
                  End Site
                  {
                    OFFSET 1.62519 -0.234802 1.16502
                  }
                }
              }
              JOINT lMid1
              {
                OFFSET 8.24714 1.18213 3.41376
                CHANNELS 3 Zrotation Xrotation Yrotation
                JOINT lMid2
                {
                  OFFSET 3.10165 -0.590103 1.0647
                  CHANNELS 3 Zrotation Xrotation Yrotation
                  End Site
                  {
                    OFFSET 2.48547 -0.328903 0.83742
                  }
                }
              }
              JOINT lRing1
              {
                OFFSET 8.82822 0.546677 1.51678
                CHANNELS 3 Zrotation Xrotation Yrotation
                JOINT lRing2
                {
                  OFFSET 2.60934 -0.819778 -0.0198488
                  CHANNELS 3 Zrotation Xrotation Yrotation
                  End Site
                  {
                    OFFSET 2.33842 -0.294052 0.168128
                  }
                }
              }
              JOINT lPinky1
              {
                OFFSET 8.27202 -0.0477905 -0.4584
                CHANNELS 3 Zrotation Xrotation Yrotation
                JOINT lPinky2
                {
                  OFFSET 1.82734 -0.647385 -0.700984
                  CHANNELS 3 Zrotation Xrotation Yrotation
                  End Site
                  {
                    OFFSET 1.69225 -0.51767 -0.607171
                  }
                }
              }
            }
          }
        }
      }
    }
  }
  JOINT rButtock
  {
    OFFSET -8.77824 4.35084 1.2192
    CHANNELS 3 Zrotation Xrotation Yrotation
    JOINT rThigh
    {
      OFFSET 0 -1.70687 -2.19456
      CHANNELS 3 Zrotation Xrotation Yrotation
      JOINT rShin
      {
        OFFSET 0 -36.8199 0.73152
        CHANNELS 3 Zrotation Xrotation Yrotation
        JOINT rFoot
        {
          OFFSET 0.73152 -45.1104 -5.12064
          CHANNELS 3 Zrotation Xrotation Yrotation
          End Site
          {
            OFFSET -1.1221 -3.69964 12.103
          }
        }
      }
    }
  }
  JOINT lButtock
  {
    OFFSET 8.77824 4.35084 1.2192
    CHANNELS 3 Zrotation Xrotation Yrotation
    JOINT lThigh
    {
      OFFSET 0 -1.70687 -2.19456
      CHANNELS 3 Zrotation Xrotation Yrotation
      JOINT lShin
      {
        OFFSET 0 -36.8199 0.73152
        CHANNELS 3 Zrotation Xrotation Yrotation
        JOINT lFoot
        {
          OFFSET -0.73152 -45.1104 -5.12064
          CHANNELS 3 Zrotation Xrotation Yrotation
          End Site
          {
            OFFSET 1.1221 -3.69964 12.103
          }
        }
      }
    }
  }
}
MOTION
Frames:	6
Frame Time:	0.03333
12.6501 66.8864 -22.6965 8.241182 45.561603 15.538062 -3.592041 21.861735 1.200023 3.725831 -13.098949 -7.301452 -13.655901 18.212206 -67.506464 36.393189 -6.194237 46.431271 -0.00119 0.0 -0.00287 -0.001376 -0.0 0.004312 -28.702747 57.498501 31.080774 99.490892 -32.181059 147.923221 -15.651653 34.58992 109.846347 -3.45175 13.659614 0.330528 -5.762195 5.575786 1.158694 39.794138 -56.261442 -13.645885 -140.761955 1.380244 116.229191 -158.894983 -6.438127 118.759405 -0.05743 0.167811 0.033182 86.237413 -78.352222 57.499241 -145.122063 1.973384 -179.749008 -149.561116 -38.770673 -171.999335 -8.191914 -17.575422 -7.730671 23.532031 67.356139 8.867875 155.503868 -3.514631 -161.838279 -93.162371 16.048103 87.565108 121.695976 -6.072109 -149.110914 -31.070186 -46.845633 -24.091794 -174.054435 -22.871112 -88.062278 -7.82383 -65.93257 -4.012099 27.609063 30.766297 -20.254395 -103.906778 -62.770368 -52.685512 -6.532437 -20.415026 2.718382 -10.172078 -21.566871 1.549848 72.758466 -72.142822 89.772421 147.293842 -46.092085 175.939011 77.072381 -51.585602 75.529505 84.407403 -52.971006 84.874367 179.985881 75.750261 0.00966 155.123645 12.090616 -82.627377 -92.914648 0.054238 -95.942211 -48.885583 32.985853 -165.485562 -0.0 -7e-05 -0.000543 50.020865 -45.719875 59.023749 57.8933 75.096873 152.948384 -89.688442 36.242935 174.117761
14.266599999999999 64.8259 -22.694200000000002 9.021242 51.356259 15.910086 -3.294187 22.988809 3.866603 3.059959 -13.832521 -10.428816 -7.605998 28.665479 -141.084029 32.828829 35.858141 102.225587 0.000537 -0.0 -0.001983 0.00065 0.0 0.003472 -152.128532 14.113011 157.55631 -80.402382 -28.844937 -76.351611 57.46859 -1.824613 163.877721 -149.874611 62.131554 126.429291 -158.000129 4.195344 88.451335 178.597029 -19.499781 87.482325 -151.353284 -17.158099 121.133761 -62.151956 57.361671 46.046315 -125.644058 49.839484 115.273221 -42.234687 58.374421 36.498954 -114.668738 66.731656 135.09253 5.975833 26.592525 -2.316718 1.297348 3.491927 1.191711 6.724829 13.231538 3.54074 -0.034513 -0.209405 0.046958 -69.464749 0.141043 -90.272059 -175.915906 -31.978919 -96.463172 -163.266573 -26.874689 -142.376462 94.518594 37.86585 -54.092896 -24.780622 -30.397995 -23.128969 -88.792476 -75.498717 -40.050888 4.354698 30.280854 -3.966933 -0.540574 -1.590055 0.29469 144.400149 37.393792 -131.567006 145.111919 -0.667768 178.91732 148.007921 -43.193395 170.544033 38.015401 -45.463287 36.88197 -39.703915 80.644457 2.389477 179.984991 75.74911 0.012349 156.123066 12.636423 -83.809673 -96.993945 -3.895319 -110.778609 44.530078 28.508209 174.950647 -0.004909 5e-05 -0.002454 57.49686 -48.079568 -0.0 -68.428195 31.593577 20.063888 2.397452 -10.145798 62.338112
16.817999999999998 62.0352 -22.0224 9.73029 59.35947 14.876207 -1.283802 24.574157 -29.911016 9.154812 -10.852298 23.272717 7.713591 23.716966 116.085875 -34.875324 28.828895 -141.581825 -8.6e-05 -0.0 0.000487 -0.000267 0.0 -0.003036 -85.537286 68.182798 88.688991 140.429236 1.136011 175.342512 -39.168802 3.735346 152.658323 23.129429 -59.288447 10.688513 -5.434263 5.264672 1.078092 -125.603828 -21.576073 110.666111 2.325488 -3.868095 -1.258029 -160.548214 -12.983913 110.191517 -89.835201 60.702927 81.263079 11.642816 -24.886192 -1.351728 -145.119938 0.184725 -179.187954 12.115504 44.800563 -3.847079 9.215942 29.589011 8.039213 -5.794366 -17.799896 -6.98387 149.851318 22.60159 -154.913354 22.159078 23.740531 59.635707 -89.185575 25.211128 102.60404 150.585593 60.151547 -126.559035 -116.308816 -50.009904 -56.954683 123.078096 30.513795 -77.766973 149.550133 -13.824079 -120.499996 168.149762 -28.460009 -118.791925 153.32022 13.628885 -138.862455 163.287798 -5.009478 -143.003252 145.099529 -1.521115 178.650181 -11.940892 26.39535 5.990359 80.939734 -51.227615 79.359533 158.848533 52.754791 148.403584 -0.0 2.5e-05 0.000979 -37.585742 -53.311904 136.173471 113.503102 -67.707446 29.587894 -77.957304 -42.190287 -155.103344 -179.952794 75.750616 -0.036384 -148.41264 4.236461 -0.0 -16.39078 74.868858 -66.844217 11.064906 26.541584 71.812657
20.061799999999998 58.0815 -21.1123 11.985576 72.244625 14.772766 -1.229795 20.457573 -169.446539 -1.086903 9.386292 160.3071 -13.185974 26.387105 -97.314391 43.425526 13.372255 52.380541 -0.002505 0.0 -0.002021 -0.002245 -0.0 0.003216 -44.039896 64.187155 46.710167 -66.559945 56.729002 48.853469 -81.688576 58.998736 -99.993414 173.241835 -54.463939 145.968012 -85.829115 38.631543 47.955659 -112.642881 -12.533291 74.479187 -153.454738 -21.067385 121.744319 -171.103058 -34.981319 117.74053 -160.827005 -7.14186 143.315639 80.986373 -77.627555 52.542084 -0.013252 -1.323231 -0.415395 -156.474131 -34.934457 175.981126 0.09794 0.25823 0.092597 -24.248931 -41.352556 -24.926961 82.87753 68.2997 -86.000623 80.529892 4.741929 -10.264479 172.590173 -47.792013 122.090706 7.415942 0.682963 2.360013 171.603866 -9.286017 -89.950177 -61.814489 -68.440902 -47.546746 135.165504 9.688628 -112.717861 170.774248 -27.987067 -117.832277 36.038118 51.722179 -29.833628 25.147133 49.188124 -20.838232 145.119165 0.267859 179.212242 -11.906321 29.602422 5.640965 0.292821 -0.752876 0.269064 159.497782 55.557429 150.079198 -0.000512 -0.001201 0.000658 -25.355256 -44.746411 -18.811933 -120.822917 60.520568 23.469683 11.448298 -45.824044 87.228 -179.99584 75.750843 -0.004292 -154.050404 -3.56801 -81.064784 -79.620775 2.616529 8.990705 146.581961 -12.794456 -87.781285
23.596600000000002 53.388400000000004 -20.2363 107.169205 87.696443 109.122028 -1.185128 22.765605 1.918682 2.723477 -11.678777 -14.835023 -16.591437 25.785231 -85.539642 43.058359 8.887847 37.970677 0.003529 0.0 0.002188 -0.002185 -0.0 0.002597 -3.53289 17.018718 4.366601 30.315234 -21.350886 14.796677 -79.437298 -55.024506 84.872269 -173.353575 -51.862633 158.359997 -179.313945 -16.821425 89.368358 -17.130537 -45.760622 -1.346223 -129.577276 16.761863 108.786436 62.450885 -63.597119 16.734472 -148.319502 24.248548 135.133683 -27.968338 50.911401 23.391564 -73.625468 72.971634 91.554426 5.09727 28.346818 -0.6842 -1.17886 -2.98536 -1.091264 -24.197396 -41.358332 -24.939787 2.645946 13.400421 -3.318473 -179.376833 -5.116351 -78.130366 -85.548304 -11.5391 71.090411 84.218407 58.657068 -62.946298 164.699927 -2.371363 -89.585047 -114.014081 -58.490773 -81.293982 152.105547 -18.556321 -121.368145 4.92438 28.15416 1.870005 160.100212 -4.90097 -142.968328 42.492585 58.274419 -36.598426 -0.004453 1.853361 -0.582716 148.371255 -76.775562 171.093684 -15.50134 54.13874 -12.143058 9.702064 -23.67779 10.494741 -0.000323 -0.00065 0.000415 -14.833659 -34.196889 -63.123355 -102.355846 16.536831 90.90196 158.241451 -25.44535 24.587199 179.999184 75.749084 0.0 -165.655395 -11.574066 -78.470868 -85.508829 5.920721 -0.585028 112.314463 63.780736 -47.909408
25.976 48.5786 -19.9373 176.250889 72.211186 176.556609 -1.545899 20.347136 -142.411719 1.680193 7.977104 124.469834 -2.206157 18.884674 55.095799 -28.128866 -14.131102 -102.056099 -0.0009 -0.0 0.000625 -0.0009 -0.0 0.000625 -143.096559 39.20805 147.520608 -133.082627 32.443659 126.925011 -58.907117 -8.602562 178.021717 167.154279 -64.783523 142.945949 -166.507631 -4.180702 89.761294 110.690256 -60.409441 80.220301 -173.764026 -52.872918 119.822726 -152.585421 -4.615469 118.276047 2.100315 -6.305421 -1.08097 10.848643 -23.470734 -1.574178 -145.117969 0.268182 -179.211644 -148.133191 -43.031008 -170.602515 -144.858457 11.079059 -141.544565 -21.345483 -36.809906 -22.936325 159.220921 -48.380762 -170.492298 -125.269735 19.222459 70.655379 -166.38362 -40.386648 -31.031657 149.550063 31.150322 -128.636491 -6.464669 -6.452254 0.634082 5.258636 4.747519 -0.168961 -0.184127 -0.300416 0.105083 -16.951341 -7.598743 1.301127 -1.281182 -3.803137 0.679742 -2.656313 1.648702 -0.199637 145.099 -1.521968 178.649722 -12.215435 36.613542 4.849918 -32.650789 83.587483 -5.690509 -0.466154 -2.35527 1.748171 -0.0 -0.000906 -0.000541 -9.130302 -23.17283 -3.786586 -152.312385 59.108458 14.105645 47.863171 -22.72477 137.377128 0.002135 0.000723 0.001068 135.291976 -86.22525 135.229762 7.029674 85.957561 -40.45887 -68.986556 -35.479189 26.40585
